<?xml version="1.0" encoding="utf-8"?>
<!-- Generator: Adobe Illustrator 19.0.0, SVG Export Plug-In . SVG Version: 6.00 Build 0)  -->
<svg version="1.1" xmlns="http://www.w3.org/2000/svg" xmlns:xlink="http://www.w3.org/1999/xlink" x="0px" y="0px"
	 viewBox="-121 267.9 812.4 260.1" style="enable-background:new -121 267.9 812.4 260.1;" xml:space="preserve">
<style type="text/css">
	.st0{fill:#89704E;}
	.st1{fill:#FFFFFF;}
</style>
<g id="WOLF">
	<path id="XMLID_494_" class="st0" d="M121,324.4c0,0,8.2,7.2,12.4,4.1c0,0,1.7-0.5,0,0.8c-1.7,1.2-51.6,36.4-59.6,60.9
		s-15.3,28-15.3,28s-6.8,14.4-15.7,16.9c-8.9,2.4-29.1,6.3-33.2,12.2c0,0,3.5-7,7.3-8.7s20.9-11.7,24-12.4s8.2-10.3,8.2-10.3
		s-5,1.9-8.2,1.9c-3.1,0-12.4,0.2-15.3,3.3c0,0,2.3-9.6,19.7-17.7c17.4-8.2,19.3-17.6,19.3-17.6s18.8-31.6,52.9-49.6
		C117.4,336.3,126,332.9,121,324.4z M119.8,321c0,0-5.2-1.2-7.5-7.3c0,0-7,14.6-18.1,3.7c0,0-1.2,2.1,1,4.1c2.3,2,9.7,9.5,17.2-0.8
		C112.5,320.6,118.2,321.7,119.8,321z M87.3,286.7c0,0,5.4,11,4.9,15.7c-0.5,4.7-2.1,9.6-3.1,11.3c-1,1.7-3.8,9.7-1.7,12.2
		c0,0-1-2.7,4.9-8.2c0,0,2.4-4.2,2.7-9.4c0.3-5.2,4.2,0.9,4.2,0.9s-2.3-4.7-1.4-7.5C98.6,298.9,95.6,291.6,87.3,286.7z M71.8,321
		c0,0-1.6-9.3,5.9-14.7c0,0-6.7-3.4-6-9.9c0,0-2.1,1.6-2.7,4c-0.5,2.4-12.9,17.4-37.2,14.3c0,0-4.2,0-5.6,1.6c0,0,7.5-0.3,8.2,2.3
		s-9.2,9.6-12.2,11.3c-3,1.7-13,7.3-19,17c0,0,6.6-6.8,9.6-7.8s16.9-11.7,18.3-13.2c1.4-1.5,4.7-1.8,1.6,6.5c0,0,2.3-0.9,3.5-4.2
		c1.2-3.3,1.9-3.7,3.3-3.9c1.4-0.1,11.5-2.6,22.6-10.7c0,0,5.2-1.2,5.7,0.9C68.3,316.6,71.8,321,71.8,321z M69,342.4
		c-6.9,13.7-4.2,18.1-4.2,18.1c0.7-5,4-9.6,4-9.6c9.9-17.2,0-25,0-25C73.7,335,69,342.4,69,342.4z M55.6,352.1
		c-2.4,6.8,1.6,11.3,1.6,11.3c-1.6-3.3,1-10.8,1-10.8c6.1-15.7,0-23,0-23C61.1,341.3,58,345.3,55.6,352.1z M83.1,290.5
		c-2.3,1.2-5.4,7.5-5.4,7.5c-2.1-18.1-20.9-10.6-29.2-8.4c-8.3,2.3-17.7,9.4-21.6,12.2c-3.8,2.8-2.8,4.5-2.8,4.5l-10.8,4.6
		c-1,13.6,9.9,12.7,9.9,12.7s-6.4,5.6-15.1,14.8c-8.7,9.2-18.3,8.5-21.2,10.4c-3,1.9-16.5,5.9-16.5,5.9s10.6-4,13.4-11.5
		s7.3-12.1,9.9-15.8c2.6-3.7,13.2-11.8,13.2-11.8c1.4-3.8-3.6-1.9-3.6-1.9c-24.9,8.9-26.8,21.6-27.3,25.2c-0.5,3.7,1.7,6.3,1.7,6.3
		l-0.3,1.4l-1.7-2.4c-12.7-7.5-23.5,0-23.5,0c15.5-18.4,40.2-34.1,47.5-33.8c7.3,0.3,12.5-0.9,13-0.9s6.8-2.4,8.7-4.7
		c1.9-2.3,27.7-20.4,27.7-20.4s5.2-5.7,7.5-6c2.3-0.3,13.9-6.8,13.9-6.8l2.8-0.9c3.2,2.1,10,8.4,12.5,11.5
		C88.1,285.3,85.4,289.3,83.1,290.5z M11.2,319.8c-1.4,0.7-5,0-5,0c-0.3,2.5-4.5,6.7-7.5,8.5c-3,1.7-10.6,16-10.6,16
		s15.3-3.8,20-11.5c4.7-7.7,8.7-8.4,8.7-8.4C14.9,324.2,11.2,319.8,11.2,319.8z M32.3,339.6c-6.6,7.5-14.3,9-21.1,10.6
		s-16.9,8.9-20.9,12.4s-3.3,10.3-3.3,10.3c3-6.4,20.5-14.6,28.4-17c7.8-2.4,18.3-12.7,19-15.1c0.7-2.4,4.5-8.6,4.5-8.6l-0.9-1.5
		C36.5,332.3,38.9,332,32.3,339.6z M-29.1,366.7c-5.7,8.2-8.4,15.3-8.9,21.1c-0.5,5.7,2.8,22.4,3.5,28.9c0.7,6.4-1.8,14.7-1.2,13.2
		c0.6-1.4,7.1-11.3,7.1-11.3s-2.4,21.4-1,24s2.8,5.7,2.8,5.7c-1.9-4.7,5.2-15.1,5.2-15.1c1.6-17.4,7-20.7,11.8-25.2
		c4.9-4.5,14.3-5.2,17.5-6.2c3.4-0.8,6.4-6.9,6.4-6.9c-4,3.3-8,2.6-8,2.6c15.3-9.7,16.7-16,23.5-28.3S46,354.7,46,354.7v-1.2
		c-40.5,8.4-26.4,23.3-51.3,30.3s-21.2-20.4-21.2-20.4C-28.2,363.6-29.1,366.7-29.1,366.7z M-109.4,396.6c1.6-2.8,11.6-12.4,14-13.4
		s12.2-7.2,12.2-7.2c-1,5.2-6.2,10.8-4.8,9.9s8.2-6.5,9.2-8.3s3.6-1,3.6-1c4.4-6.4,24.6-13.8,25.8-14s6.8,1.2,7.6,7.8
		C-41,377-48,376-48,376c-8-3.2-14.4,0.8-19.6,4.6c-5.2,3.8-12.2,4.2-12.2,4.2c4.2,3.4,13.6-2.8,20-5.4c6.4-2.6,13.4,2.4,13.4,2.4
		s-0.6-1.2,3.4-5.8s4.8-8.6,6.6-15.5c1.8-6.8,7-8.7,7-8.7c-4.4-7.3-17-5.3-20.8-4.9c-3.8,0.4-5.6-1.4-5.6-1.4
		c1.4,5.4-11.4,18.4-20.8,16.8s-15.8,1.8-17,2.8c-1.2,1,0.8,1,0.8,1c2-2.8,8-1.8,8-1.8s-2.4,6.4-9.2,8.5
		c-6.8,2.1-13.2,10.1-16.2,17.5s-10.8,16-10.8,16C-117.8,406-111,399.4-109.4,396.6z M-55.6,385.9c4.9-0.7,7.2,3.6,7.7,3.6
		s1.1-0.8,1.1-0.8c-0.6-2,0-5,0-5c-4.6-5.8-15.6-0.6-22.4,2.1s-11.8,0-11.8,0C-74.3,391-60.6,386.6-55.6,385.9z M-50,390.6
		c-4.4,3.6-8.3-2.1-18.8,0.6c-12.5,3.2-22-3.6-22-3.6c2.4,6.5,14.7,10.2,26.8,7.3c12.1-2.8,16.1,0.9,16.1,0.9s0.1-1.3-0.6-3
		c-0.7-1.6,0-2.4,0-2.4L-50,390.6z M-68.1,407.8c-3.1-0.3-7-4.9-18.5-9c-11.6-4.1-15.6,0.4-15.6,0.4c1.1-0.6,12.2,1.8,13.6,2.4
		s8,2.6,6.1,8.4c-1.9,5.9-6.5,7.2-6.5,7.2h1.6c5.2-3.3,6.5-1.7,7.7-2.5c1.2-0.8,6.9,0.5,12.6,1s12.4-4.1,14.8-5.8s2.4-5.9,2.4-5.9
		c2.4-3,2.1-6,2.1-6C-51,408.7-65.1,408.1-68.1,407.8z M-49.7,400.9c0,0-2.6-2.9-11.6-0.6c-8.9,2.3-18.4-2.6-18.4-2.6
		s-3.3,0.2-4,1.7c0,0,2.3,0.1,2.5,0.8c0,0,0.6-0.8,2.9,0c2.3,0.7,9.6,4.2,14.2,3.9c4.7-0.3,7.2-0.4,11.3-2.9c0,0,1.1-0.5,1.7,0.1
		C-50.5,402.1-51.1,401.4-49.7,400.9z M-50.7,415.4c-2.4,3.3-4.3,13-5.4,19.9c-1.1,6.8,4.6,17.1,7.7,21.9c3.2,4.8,3.2,12.8,3.2,12.8
		c1.6,4.5-0.2,6.7-0.2,6.7c-0.8-3.3-5.8-12.7-8.4-17.8c-2.5-5.1-4.6-14.5-5-18c-0.4-3.6-1.4-7.1-1.4-7.1
		c-0.3,29.9,0.8,25.8,10.5,44.4s5.7,32.2,5.3,33.1c-0.4,0.9,0.6,1.2,0.6,1.2c5.6-16.1-0.8-32.5-0.8-32.5s0-2.8,1-4.8s1.1-7,1.1-7
		c5.1,5.1,6.2,12.6,6.8,21.6c0.6,9,7.3,15.9,7.3,15.9c-2.9-3.1-3.6-10.3-3-22s-8.5-27.4-12.1-31.8c-3.7-4.4-4.6-9.1-4.6-9.1
		c2.7-1,5,3.6,6.2,4.5c1.1,0.9,1.2,0,1.2,0c-3-3.8-4.6-24.4-4.4-27.5c0.2-3-3-15.5-3-15.5C-47.7,406.1-48.2,412.2-50.7,415.4z
		 M-57.1,528.1c0,0,0.6-5.6,3.6-9.6s5.8-16.8,2.8-28.4s-9.3-20-16-23.6c0,0-4.3-4.2-4.4-7.3c0,0,6.7,4.5,9.3,9.1
		c0,0-5-13.8-0.8-28.9s4.7-20.4,3.3-24.8c0,0-0.9,4.8-3.7,7.3c-2.8,2.5-17.1,16.9-20.2,21.5c-3.1,4.6-16.2,23.7-9.8,45.8
		c0,0-0.5-5.6,1.3-8.8c1.8-3.1,3.5-7.5,3.8-10.4c0,0,4.4,11,12.7,20.7s14.2,18.9,15,24.5S-58.8,526.4-57.1,528.1z M-85.8,425.5
		c-4.5,4.4-8.8,13.2-10.2,17.3c-1.4,4.1-2.9,5.5-2.9,5.5s1.3-1.3,3.3-2.7c2-1.4,7.6-8.9,8.4-11.3c0.8-2.4,3.4-4.1,3-3.6
		s-0.7,2.1-0.8,4.2s-0.8,4.9-0.8,4.9c0.8-1.2,2.2-3.8,2.7-5.4s9.3-9.7,9.3-9.7s4.3-3.5,3.9-4.4s1.2-3,1.2-3
		C-78.7,425.2-81.3,421.1-85.8,425.5z M-97.5,458.9c-5.1,7.5-5,15.3-4.8,16.8c0.2,1.5,1.8,3.9,1.8,3.9c-0.5-1.9,0.8-6.6,1.6-9.6
		s4.4-7.1,7.1-12.3c2.7-5.2,1-14.9,1-14.9C-91,447.3-92.4,451.4-97.5,458.9z M-2.9,455.7c-1.9,9.4,2.5,23.1,3.3,25.1
		c0.8,2,0,5.2,0,5.2c5.1-10.7,24-25.8,30-27.6c6-1.8,12.5,3.5,12.6,12.9s4.6,18.5,4.8,19.5s7.5,10.9,10.6,12.7
		c4.4,2.5,6.8,7.9,6.8,7.9c1.5-4.8-2.7-10.8-2.8-12.9s-9.2-11-9.2-11c4.5-0.1,11.2,7.9,11.2,7.9s-0.5-2.4-3.6-5.8
		c-3.1-3.4-2.7-11.8-3-18.3s-7.5-25.5-18.1-26.9c-10.6-1.3-18.6,7.9-25.4,13.9c-6.8,6-9.2,1-9.2,1c-6.2-13.2,2.4-24,2.4-24
		c2-1.6,6.8-7.8,6.8-7.8C-1.1,438.5-1,446.3-2.9,455.7z M11.1,486.5c4.3-5.1,9.4-6.6,14.7-6.5s12.4,14,14.4,16.4
		c3.7,4.5,18.8,12.1,18.1,11.4s-16.2-11.5-19.2-19.6c-1.5-3.9-0.3-8.8-0.9-13.1c-0.6-4.3-4.4-9.3-8.7-10.6s-10.7,6.9-11.3,7.7
		c-0.6,0.8-6.3,8.2-7.8,9.6C9.2,483-0.4,493.8-5,496.9C-5,496.9,7.1,491.3,11.1,486.5z M-18.6,520.2c0,0,2.7-4.6,8.4-7.7
		c5.7-3,11.7-4.7,11.7-4.7s11.7-6.1,15.9-9.6s13.5-2.1,17.6,2.9s12.4,11.8,19.8,9c0,0-9-0.9-14.3-7.2c-5.3-6.3-13.8-17.7-20-15.9
		c-6.2,1.8-12.5,7.2-14.7,10.8c-2.3,3.6-6.8,6.6-9.2,7.5C-5.8,506.2-19.3,510.6-18.6,520.2z M59.2,425.9c-2.9,5.4,3,18.6,6.4,27
		c3.4,8.4,0.6,20.4,0.6,20.4c2.3,0,3.3-4.5,3.3-4.5c5.3,9.9,1.8,8.7,3.5,23s15.8,23.9,15.8,23.9c-2.1-2-2.9-5.1-5.9-12.2
		s-1.2-18.5-0.6-26.7c0.6-8.3-9.8-30.6-15.2-39.6s-5.3-19.9-5.3-19.9S62.1,420.5,59.2,425.9z M84,475.9c0,0,1.4,2.9,1.4,7.2
		c0,4.4-0.5,26.7,9.5,33.6c0,0-3-4.7-3-6.3c0-1.6,0.8-1.5,0.8-1.5s-2.7-5-2.6-14.1c0.2-9.2-3.8-16.2-3.8-16.2S85.9,478.7,84,475.9z
		 M70,438.8c0,0,7.7,8.9,9.9,16.8c2.3,8,7.1,14.6,7.1,14.6s-1.7-4.7-1.5-5.9c0.2-1.2,4.2,6.3,5.1,10.1c0.9,3.8,1.7,23.9,11.6,32
		c0,0-3.2-11-3.6-16.1c-0.5-5.1-5-19.5-9.8-30.6S70,438.8,70,438.8z M111.2,514.3c0,0-6.6-7-6-23.1c0.6-15.7-4.8-37.2-14-44.9
		c0,0,3.9,2.9,4.7,2.9c0,0-4.7-4.9-4.9-7.9s-4.2-7.3-6.3-9s-13-10.9-11.6-24.6c0,0,1.2-10.3,0-13.6l-1.2,3.5c0,0-0.9,8.5-3.4,13
		s-1.9,12.2-0.9,13.7s1.4,3,1.6,3.9c0.2,0.9-0.2-3.2,0.9-4s12.7,14,13.3,15.1c8.8,15.8,17.1,38.2,16.7,40.1
		C99.7,481.3,103.8,507.9,111.2,514.3z"/>
</g>
<g id="NAME">
	<polygon id="F" class="st0" points="102.2,426 157.8,347.6 209.7,347.6 224.2,367.9 172.9,367.8 162.7,382.1 195,382.1 
		183.2,398.6 151,398.6 109.4,457 	"/>
	<polygon id="I" class="st0" points="229.3,371.2 210.6,371.2 185.6,406.5 193.8,420.9 	"/>
	<path id="D" class="st0" d="M288.2,371.2h-51.6l-26,36.7l-9.4,13H256c0,0,7.6-2.2,10.7-6.5c3.1-4.3,20.3-28.6,24-33.8
		C294.4,375.4,288.2,371.2,288.2,371.2z M255.1,404.6c-1.2,1.6-4.4,2.4-4.4,2.4h-21l14.5-20.3h23.6
		C267.8,386.7,256.2,403.1,255.1,404.6z"/>
	<polygon id="E" class="st0" points="305.4,371.4 279.4,408.2 288.7,420.6 341,420.6 332.6,407 298.4,407 302.1,401.8 327.4,401.8 
		335.7,390.3 310.3,390.3 314,385.1 343.7,385.1 353.7,371.3 305.4,371.3 305.4,371.4 	"/>
	<polygon id="L" class="st0" points="394.1,420.9 385.2,407.1 357.1,407.1 382.7,371.2 364,371.2 339,406.5 347.2,420.9 
		394.1,420.9 	"/>
	<path id="R" class="st0" d="M495.3,347.6h-70.6l-36.1,50.8l14,21.6l18.2-25.4l11.6,11.5l-20.3,28.5l14,21.5l34.2-48.1l-8-8.9
		l19.7-7.5l22-31C494,360.6,500.7,351.9,495.3,347.6z M450.7,380.7l-14,6.4l-4.8-8.2l8.7-12.2h19.9L450.7,380.7z"/>
	<path id="O-1" class="st0" d="M547.2,371.1h-46c0,0-5.2-0.6-9.2,5.2c-2.1,3.1-16.5,23.6-22.4,31.6s3.6,13,3.6,13H515
		c0,0,7.6-2.2,10.7-6.5s20.3-28.6,24-33.8C553.3,375.4,547.2,371.2,547.2,371.1z M525.1,389c-1.9,2.7-10,14.1-11.2,15.8
		c-1.2,1.6-4.4,2.4-4.4,2.4h-17.8c0,0-2.7-0.8-1.3-2.7c1.4-1.9,9.9-13.9,11.4-16c1.5-2.1,3.7-1.7,3.7-1.7h18.2
		C523.7,386.8,527,386.3,525.1,389z"/>
	<polygon id="M" class="st0" points="576.9,380.8 583.8,371.1 565.1,371.1 529.6,420.8 548.3,420.8 565.2,397.1 570,409.3 
		588.4,400.2 574.8,419.2 584.6,431.6 627.6,371.1 609,371.1 598.4,386.1 581.2,393.4 	"/>
	<path id="O2" class="st0" d="M687.8,371.1h-46c0,0-5.2-0.6-9.2,5.2c-2.1,3.1-16.5,23.6-22.4,31.6s3.6,13,3.6,13h41.8
		c0,0,7.6-2.2,10.7-6.5s20.3-28.6,24-33.8C693.9,375.4,687.8,371.2,687.8,371.1z M665.7,389c-1.9,2.7-9.9,14.1-11.2,15.8
		c-1.2,1.6-4.4,2.4-4.4,2.4h-17.8c0,0-2.7-0.8-1.3-2.7c1.4-1.9,9.9-13.9,11.4-16c1.5-2.1,3.7-1.7,3.7-1.7h18.2
		C664.3,386.8,667.6,386.3,665.7,389z"/>
</g>
<g id="TITLE">
	<g id="XMLID_52_">
		<path id="XMLID_53_" class="st1" d="M140.1,490.6l-3.3-23.2h3.6l1.9,15l2.5-15h2.8l2.5,15l1.9-15h3.5l-3.3,23.2h-3.4l-2.6-15.5
			l-2.6,15.5H140.1z"/>
		<path id="XMLID_55_" class="st1" d="M161.5,490.6v-23.2h9.7v3h-5.5v6.7h4.3v3h-4.3v7.7h5.6v2.9H161.5z"/>
		<path id="XMLID_57_" class="st1" d="M177,490.6v-23.2h5.7c1.1,0,2,0.1,2.8,0.3c0.8,0.2,1.5,0.5,2.1,1c0.6,0.4,1.1,1.1,1.4,1.8
			c0.3,0.8,0.5,1.7,0.5,2.8c0,2.9-1.1,4.5-3.4,4.8c1.4,0.3,2.4,0.9,3.1,1.8c0.7,0.9,1,2.3,1,4c0,2.2-0.5,3.9-1.7,5
			c-1.1,1.1-2.7,1.7-4.9,1.7H177z M181.3,476.8h1.3c1.2,0,2.1-0.3,2.6-0.8c0.5-0.5,0.7-1.4,0.7-2.7c0-0.7-0.1-1.2-0.2-1.6
			c-0.2-0.4-0.4-0.7-0.8-0.9s-0.8-0.3-1.2-0.4c-0.4-0.1-1-0.1-1.8-0.1h-0.6V476.8z M181.3,487.6h1.6c1.3,0,2.1-0.3,2.6-0.9
			c0.5-0.6,0.7-1.6,0.7-2.9c0-1.4-0.3-2.4-0.8-3c-0.5-0.6-1.5-0.9-2.8-0.9h-1.3V487.6z"/>
		<path id="XMLID_61_" class="st1" d="M206.6,490.6v-23.2h5.4c1.4,0,2.6,0.1,3.5,0.4c0.9,0.3,1.7,0.7,2.3,1.3c0.6,0.6,1,1.4,1.2,2.2
			c0.2,0.9,0.4,2,0.4,3.3v8.4c0,1.3-0.1,2.5-0.4,3.4c-0.2,0.9-0.6,1.7-1.2,2.4c-0.6,0.6-1.3,1.1-2.2,1.4c-0.9,0.3-2.1,0.5-3.4,0.5
			H206.6z M210.8,487.6h1.2c0.4,0,0.8,0,1.1-0.1c0.3-0.1,0.6-0.2,0.8-0.3c0.2-0.1,0.4-0.3,0.5-0.5c0.1-0.2,0.3-0.4,0.3-0.6
			c0.1-0.2,0.1-0.5,0.2-0.9c0-0.4,0.1-0.7,0.1-1c0-0.3,0-0.7,0-1.2v-8.5c0-0.6,0-1,0-1.3c0-0.3-0.1-0.7-0.1-1s-0.2-0.6-0.3-0.8
			c-0.1-0.2-0.3-0.4-0.5-0.5c-0.2-0.2-0.5-0.3-0.8-0.3c-0.3-0.1-0.7-0.1-1.2-0.1h-1.2V487.6z"/>
		<path id="XMLID_64_" class="st1" d="M225.8,490.6v-23.2h9.7v3H230v6.7h4.3v3H230v7.7h5.6v2.9H225.8z"/>
		<path id="XMLID_66_" class="st1" d="M244.9,490.6l-4.7-23.2h3.8l3.1,16.2l2.9-16.2h3.8l-4.7,23.2H244.9z"/>
		<path id="XMLID_68_" class="st1" d="M259.4,490.6v-23.2h9.7v3h-5.5v6.7h4.3v3h-4.3v7.7h5.6v2.9H259.4z"/>
		<path id="XMLID_70_" class="st1" d="M275,490.6v-23.2h4.2v20.3h5.6v2.9H275z"/>
		<path id="XMLID_72_" class="st1" d="M296.4,490.9c-2.4,0-4.1-0.6-5.1-1.9c-1-1.3-1.6-3.2-1.6-5.7v-8.6c0-1.2,0.1-2.3,0.3-3.2
			c0.2-0.9,0.6-1.7,1.1-2.4c0.5-0.7,1.2-1.2,2.1-1.5c0.9-0.3,1.9-0.5,3.1-0.5c2.4,0,4.1,0.6,5.1,1.9s1.6,3.2,1.6,5.6v8.6
			c0,1.2-0.1,2.3-0.4,3.2c-0.2,0.9-0.6,1.7-1.1,2.4c-0.5,0.7-1.2,1.2-2.1,1.5C298.6,490.7,297.6,490.9,296.4,490.9z M295.3,487.5
			c0.3,0.1,0.6,0.2,1.1,0.2s0.8-0.1,1.1-0.2s0.5-0.3,0.7-0.5c0.2-0.2,0.3-0.5,0.4-0.8c0.1-0.3,0.2-0.6,0.2-1c0-0.3,0-0.7,0-1.1
			v-10.6c0-0.6,0-1-0.1-1.4c-0.1-0.4-0.2-0.7-0.3-1.1c-0.2-0.3-0.4-0.6-0.7-0.7c-0.3-0.2-0.7-0.2-1.2-0.2s-0.9,0.1-1.3,0.2
			c-0.3,0.2-0.6,0.4-0.7,0.7c-0.2,0.3-0.3,0.7-0.3,1.1c-0.1,0.4-0.1,0.8-0.1,1.4v10.6c0,0.4,0,0.8,0,1.1c0,0.3,0.1,0.6,0.2,1
			c0.1,0.3,0.2,0.6,0.4,0.8C294.8,487.3,295,487.4,295.3,487.5z"/>
		<path id="XMLID_75_" class="st1" d="M309.5,490.6v-23.2h6.7c4,0,5.9,2.2,5.9,6.6c0,2.2-0.5,3.7-1.6,4.7c-1.1,1-2.6,1.5-4.6,1.5
			h-2.2v10.4H309.5z M313.7,477.2h1.4c1.2,0,2-0.2,2.4-0.7c0.4-0.5,0.6-1.3,0.6-2.6c0-0.7,0-1.3-0.1-1.7c-0.1-0.4-0.2-0.8-0.4-1.1
			c-0.2-0.3-0.5-0.5-0.9-0.7c-0.4-0.1-1-0.2-1.6-0.2h-1.4V477.2z"/>
		<path id="XMLID_78_" class="st1" d="M327.7,490.6v-23.2h9.7v3h-5.5v6.7h4.3v3h-4.3v7.7h5.6v2.9H327.7z"/>
		<path id="XMLID_80_" class="st1" d="M343.2,490.6v-23.2h5.3c1.2,0,2.3,0.1,3.2,0.3c0.9,0.2,1.6,0.5,2.3,1c0.6,0.5,1.1,1.1,1.5,1.9
			c0.3,0.8,0.5,1.8,0.5,3c0,1.5-0.2,2.6-0.7,3.6c-0.4,0.9-1.2,1.6-2.2,2l3.2,11.4h-4.2l-2.8-10.6h-1.9v10.6H343.2z M347.4,477.3h1
			c1.3,0,2.1-0.3,2.7-0.8s0.8-1.4,0.8-2.7c0-1.2-0.2-2.1-0.7-2.7c-0.5-0.5-1.3-0.8-2.5-0.8h-1.3V477.3z"/>
		<path id="XMLID_83_" class="st1" d="M371.5,490.6l4.7-23.2h4.4l4.7,23.2h-3.9l-0.9-5.4h-4l-1,5.4H371.5z M376.9,482.4h3.1
			l-1.6-9.5L376.9,482.4z"/>
		<path id="XMLID_86_" class="st1" d="M390.9,490.6v-23.2h2.9l5.7,13.2v-13.2h3.5v23.2h-2.8l-5.7-13.8v13.8H390.9z"/>
		<path id="XMLID_88_" class="st1" d="M409.8,490.6v-23.2h5.4c1.4,0,2.6,0.1,3.5,0.4c0.9,0.3,1.7,0.7,2.3,1.3c0.6,0.6,1,1.4,1.2,2.2
			c0.2,0.9,0.4,2,0.4,3.3v8.4c0,1.3-0.1,2.5-0.4,3.4c-0.2,0.9-0.6,1.7-1.2,2.4c-0.6,0.6-1.3,1.1-2.2,1.4c-0.9,0.3-2.1,0.5-3.4,0.5
			H409.8z M414.1,487.6h1.2c0.4,0,0.8,0,1.1-0.1c0.3-0.1,0.6-0.2,0.8-0.3c0.2-0.1,0.4-0.3,0.5-0.5c0.1-0.2,0.3-0.4,0.3-0.6
			c0.1-0.2,0.1-0.5,0.2-0.9c0-0.4,0.1-0.7,0.1-1c0-0.3,0-0.7,0-1.2v-8.5c0-0.6,0-1,0-1.3c0-0.3-0.1-0.7-0.1-1
			c-0.1-0.3-0.2-0.6-0.3-0.8c-0.1-0.2-0.3-0.4-0.5-0.5c-0.2-0.2-0.5-0.3-0.8-0.3c-0.3-0.1-0.7-0.1-1.2-0.1h-1.2V487.6z"/>
		<path id="XMLID_91_" class="st1" d="M445.1,490.9c-2.2,0-3.8-0.7-4.7-2.1c-1-1.4-1.5-3.4-1.5-6v-7.6c0-1.3,0.1-2.5,0.3-3.5
			c0.2-1,0.6-1.8,1.1-2.5c0.5-0.7,1.2-1.3,2-1.6c0.9-0.4,1.9-0.5,3.2-0.5c2.3,0,3.9,0.6,4.9,1.7c1,1.1,1.5,2.8,1.5,5.1v1.1h-4v-1.2
			c0-0.5,0-0.9,0-1.3c0-0.3-0.1-0.7-0.2-1c-0.1-0.3-0.2-0.6-0.4-0.8c-0.2-0.2-0.4-0.3-0.7-0.4c-0.3-0.1-0.6-0.2-1.1-0.2
			c-0.3,0-0.6,0-0.8,0.1c-0.2,0.1-0.5,0.2-0.6,0.3c-0.2,0.1-0.3,0.3-0.4,0.5c-0.1,0.2-0.2,0.4-0.3,0.6c-0.1,0.2-0.1,0.5-0.1,0.8
			c0,0.3-0.1,0.6-0.1,0.8c0,0.2,0,0.6,0,0.9v9.4c0,1.4,0.2,2.4,0.5,3.1c0.3,0.7,1,1,2,1c0.5,0,0.9-0.1,1.3-0.3
			c0.3-0.2,0.6-0.5,0.8-0.9c0.2-0.4,0.3-0.8,0.4-1.3c0.1-0.5,0.1-1.1,0.1-1.8v-1.9h-2.5v-2.7h6.3v11.8h-2.7l-0.3-2.4
			C448.4,490,447,490.9,445.1,490.9z"/>
		<path id="XMLID_93_" class="st1" d="M458.6,490.6v-23.2h5.3c1.2,0,2.3,0.1,3.2,0.3c0.9,0.2,1.6,0.5,2.3,1c0.6,0.5,1.1,1.1,1.5,1.9
			c0.3,0.8,0.5,1.8,0.5,3c0,1.5-0.2,2.6-0.7,3.6c-0.4,0.9-1.2,1.6-2.2,2l3.2,11.4h-4.2l-2.8-10.6h-1.9v10.6H458.6z M462.8,477.3h1
			c1.3,0,2.1-0.3,2.7-0.8s0.8-1.4,0.8-2.7c0-1.2-0.2-2.1-0.7-2.7c-0.5-0.5-1.3-0.8-2.5-0.8h-1.3V477.3z"/>
		<path id="XMLID_96_" class="st1" d="M476.6,490.6l4.7-23.2h4.4l4.7,23.2h-3.9l-0.9-5.4h-4l-1,5.4H476.6z M482,482.4h3.1l-1.6-9.5
			L482,482.4z"/>
		<path id="XMLID_99_" class="st1" d="M496.1,490.6v-23.2h6.7c4,0,5.9,2.2,5.9,6.6c0,2.2-0.5,3.7-1.6,4.7c-1.1,1-2.6,1.5-4.6,1.5
			h-2.2v10.4H496.1z M500.3,477.2h1.4c1.2,0,2-0.2,2.4-0.7c0.4-0.5,0.6-1.3,0.6-2.6c0-0.7,0-1.3-0.1-1.7c-0.1-0.4-0.2-0.8-0.4-1.1
			c-0.2-0.3-0.5-0.5-0.9-0.7c-0.4-0.1-1-0.2-1.6-0.2h-1.4V477.2z"/>
		<path id="XMLID_102_" class="st1" d="M514.3,490.6v-23.2h4.2v9.7h4.7v-9.7h4.2v23.2h-4.2v-10.5h-4.7v10.5H514.3z"/>
		<path id="XMLID_104_" class="st1" d="M534.4,490.6v-23.2h4.2v23.2H534.4z"/>
		<path id="XMLID_106_" class="st1" d="M551.7,490.9c-1,0-1.9-0.1-2.6-0.4c-0.8-0.3-1.4-0.6-1.9-1.1c-0.5-0.4-0.9-1-1.2-1.7
			c-0.3-0.7-0.5-1.4-0.7-2.1c-0.1-0.8-0.2-1.6-0.2-2.6V475c0-1,0.1-1.9,0.2-2.7c0.1-0.8,0.4-1.5,0.7-2.2c0.3-0.7,0.7-1.2,1.2-1.6
			c0.5-0.4,1.1-0.8,1.9-1c0.8-0.2,1.6-0.4,2.7-0.4c1.2,0,2.1,0.2,3,0.5c0.8,0.3,1.5,0.8,1.9,1.4c0.5,0.6,0.8,1.3,1,2.1
			c0.2,0.8,0.3,1.7,0.3,2.8v2h-4.1v-2c0-1.2-0.1-1.9-0.2-2.3c-0.2-0.8-0.8-1.2-1.8-1.3c-0.1,0-0.2,0-0.2,0c-0.4,0-0.7,0-0.9,0.1
			c-0.3,0.1-0.5,0.2-0.7,0.4c-0.2,0.2-0.3,0.4-0.4,0.6s-0.2,0.5-0.2,0.8c-0.1,0.3-0.1,0.6-0.1,0.9c0,0.3,0,0.6,0,1.1v9.8
			c0,1.4,0.2,2.3,0.5,2.9c0.3,0.6,0.9,0.9,1.8,0.9c0.3,0,0.6,0,0.8-0.1c0.2-0.1,0.4-0.2,0.6-0.3c0.2-0.1,0.3-0.3,0.4-0.5
			c0.1-0.2,0.2-0.4,0.2-0.6c0.1-0.2,0.1-0.4,0.1-0.7c0-0.3,0-0.6,0-0.8c0-0.2,0-0.5,0-0.9v-2.1h4.1v1.9c0,0.9-0.1,1.6-0.2,2.3
			c-0.1,0.7-0.3,1.3-0.6,1.9c-0.3,0.6-0.7,1.1-1.1,1.5c-0.5,0.4-1.1,0.7-1.8,0.9C553.5,490.7,552.7,490.9,551.7,490.9z"/>
		<path id="XMLID_108_" class="st1" d="M573.3,490.6l4.7-23.2h4.4l4.7,23.2h-3.9l-0.9-5.4h-4l-1,5.4H573.3z M578.7,482.4h3.1
			l-1.6-9.5L578.7,482.4z"/>
		<path id="XMLID_111_" class="st1" d="M592.7,490.6v-23.2h5.3c1.2,0,2.3,0.1,3.2,0.3c0.9,0.2,1.6,0.5,2.3,1
			c0.6,0.5,1.1,1.1,1.5,1.9c0.3,0.8,0.5,1.8,0.5,3c0,1.5-0.2,2.6-0.7,3.6c-0.4,0.9-1.2,1.6-2.2,2l3.2,11.4h-4.2l-2.8-10.6H597v10.6
			H592.7z M597,477.3h1c1.3,0,2.1-0.3,2.7-0.8c0.5-0.5,0.8-1.4,0.8-2.7c0-1.2-0.2-2.1-0.7-2.7c-0.5-0.5-1.3-0.8-2.5-0.8H597V477.3z"
			/>
		<path id="XMLID_114_" class="st1" d="M614.2,490.6v-20.1h-3.9v-3.1h11.9v3.1h-3.8v20.1H614.2z"/>
		<path id="XMLID_116_" class="st1" d="M627.5,490.6v-23.2h4.2v23.2H627.5z"/>
		<path id="XMLID_118_" class="st1" d="M644.4,490.9c-4.1,0-6.2-2.4-6.4-7.1l3.7-0.8c0.1,3.1,1,4.6,2.6,4.6c0.6,0,1.1-0.2,1.4-0.6
			c0.3-0.4,0.5-0.9,0.5-1.6c0-0.6-0.1-1.2-0.4-1.8c-0.2-0.5-0.5-1-0.8-1.3c-0.3-0.3-0.7-0.8-1.3-1.3l-3.1-2.6
			c-0.9-0.8-1.6-1.6-2-2.4c-0.4-0.8-0.7-1.9-0.7-3.2c0-1.8,0.5-3.2,1.6-4.2c1.1-1,2.5-1.5,4.4-1.5c0.8,0,1.6,0.1,2.3,0.3
			s1.2,0.5,1.6,0.9c0.4,0.4,0.8,0.8,1.1,1.4c0.3,0.6,0.5,1.1,0.6,1.7c0.1,0.6,0.2,1.3,0.3,2l-3.6,0.7c0-0.5,0-0.9-0.1-1.2
			c0-0.3-0.1-0.7-0.2-1.1c-0.1-0.4-0.2-0.6-0.4-0.9c-0.2-0.2-0.4-0.4-0.7-0.5c-0.3-0.1-0.6-0.2-1-0.2c-0.6,0-1.1,0.2-1.4,0.6
			c-0.3,0.4-0.5,0.9-0.5,1.5c0,0.7,0.1,1.4,0.4,1.8c0.3,0.5,0.8,1,1.4,1.5l3,2.6c0.5,0.5,0.9,0.9,1.3,1.3c0.4,0.4,0.7,0.9,1.1,1.5
			c0.3,0.6,0.6,1.2,0.8,1.8c0.2,0.7,0.3,1.4,0.3,2.1c0,1.7-0.5,3.1-1.6,4.1C647.5,490.3,646.1,490.9,644.4,490.9z"/>
		<path id="XMLID_120_" class="st1" d="M658.3,490.6v-20.1h-3.9v-3.1h11.9v3.1h-3.8v20.1H658.3z"/>
	</g>
</g>
</svg>
